<svg width="24" height="24" viewBox="0 0 512 512" fill="none" xmlns="http://www.w3.org/2000/svg">
  <!-- Grok mark for light UI chrome (panel tabs, etc.) -->
  <path
    fill="#1A1A1A"
    d="M200.627 323.264L434.46 86.7826V87.0046L502 19C500.793 20.7342 499.57 22.4224 498.361 24.1106C447.041 95.2696 421.983 130.065 442.09 217.132L441.973 216.999C455.835 276.264 441.001 341.988 393.112 390.202C332.731 451.037 236.113 464.575 156.552 409.813L212.029 383.965C262.804 404.037 318.368 395.224 358.288 355.023C398.223 314.821 407.194 256.281 387.116 207.55C383.301 198.32 371.87 195.995 363.871 201.949L200.627 323.264ZM166.938 352.741L166.895 352.785L11 493C20.8837 479.299 33.1544 466.338 45.3963 453.391C79.9246 416.864 114.188 380.662 93.2849 329.5C65.297 261.037 81.5891 180.812 133.426 128.627C187.31 74.4292 266.663 60.7568 332.937 88.2186C347.609 93.6996 360.395 101.506 370.353 108.765L315.01 134.493C263.482 112.733 204.442 127.532 168.412 163.808C119.682 212.822 109.828 297.816 166.938 352.741Z"
  />
</svg>
