<svg width="512" height="510" viewBox="0 0 512 510" fill="none" xmlns="http://www.w3.org/2000/svg">
<g clip-path="url(#clip0_1064_6)">
<path fill-rule="evenodd" clip-rule="evenodd" d="M115.612 0H396.388C459.975 0 512 52.026 512 115.612V394.028C512 457.615 459.975 509.641 396.388 509.641H115.612C52.026 509.641 0 457.615 0 394.028V115.612C0 52.026 52.026 0 115.612 0Z" fill="black"/>
<path fill-rule="evenodd" clip-rule="evenodd" d="M213.235 306.019L392.211 126.017V126.186L443.906 74.423C442.982 75.743 442.046 77.028 441.121 78.313C401.84 132.477 382.661 158.962 398.051 225.235L397.961 225.134C408.571 270.244 397.217 320.271 360.563 356.97C314.347 403.276 240.396 413.581 179.5 371.898L221.962 352.223C260.825 367.501 303.354 360.793 333.909 330.193C364.475 299.593 371.341 255.034 355.974 217.941C353.054 210.916 344.304 209.146 338.182 213.678L213.235 306.019ZM187.449 328.456L187.416 328.49L68.094 435.217C75.659 424.788 85.051 414.923 94.421 405.068C120.849 377.265 147.074 349.709 131.075 310.766C109.653 258.654 122.123 197.589 161.799 157.868C203.042 116.614 263.779 106.207 314.505 127.11C325.735 131.282 335.521 137.224 343.143 142.749L300.784 162.333C261.344 145.77 216.155 157.034 188.577 184.646C151.279 221.954 143.737 286.649 187.449 328.456Z" fill="white"/>
<path d="M214 479.5C214 462.655 227.667 449 244.527 449H481.473C498.333 449 512 462.655 512 479.5C512 496.345 498.333 510 481.473 510H244.527C227.667 510 214 496.345 214 479.5Z" fill="white"/>
<path d="M272.939 472.238H268.843C268.6 471.061 268.176 470.027 267.571 469.135C266.976 468.244 266.249 467.496 265.39 466.891C264.542 466.275 263.601 465.812 262.565 465.504C261.53 465.196 260.451 465.042 259.328 465.042C257.279 465.042 255.424 465.559 253.761 466.594C252.109 467.628 250.793 469.152 249.813 471.165C248.844 473.179 248.359 475.649 248.359 478.576C248.359 481.503 248.844 483.973 249.813 485.986C250.793 488 252.109 489.524 253.761 490.558C255.424 491.592 257.279 492.109 259.328 492.109C260.451 492.109 261.53 491.955 262.565 491.647C263.601 491.339 264.542 490.882 265.39 490.277C266.249 489.661 266.976 488.907 267.571 488.016C268.176 487.114 268.6 486.08 268.843 484.913H272.939C272.631 486.641 272.069 488.187 271.254 489.551C270.439 490.915 269.426 492.076 268.215 493.034C267.003 493.98 265.643 494.7 264.135 495.196C262.637 495.691 261.035 495.938 259.328 495.938C256.442 495.938 253.876 495.234 251.63 493.826C249.383 492.417 247.616 490.415 246.327 487.818C245.039 485.222 244.395 482.141 244.395 478.576C244.395 475.011 245.039 471.93 246.327 469.333C247.616 466.737 249.383 464.734 251.63 463.326C253.876 461.917 256.442 461.213 259.328 461.213C261.035 461.213 262.637 461.461 264.135 461.956C265.643 462.451 267.003 463.177 268.215 464.134C269.426 465.081 270.439 466.236 271.254 467.6C272.069 468.954 272.631 470.5 272.939 472.238Z" fill="black"/>
<path d="M289.338 496.004C287.048 496.004 285.038 495.46 283.309 494.37C281.591 493.281 280.247 491.757 279.278 489.799C278.32 487.84 277.841 485.552 277.841 482.933C277.841 480.292 278.32 477.987 279.278 476.018C280.247 474.048 281.591 472.519 283.309 471.429C285.038 470.34 287.048 469.795 289.338 469.795C291.629 469.795 293.633 470.34 295.351 471.429C297.08 472.519 298.424 474.048 299.382 476.018C300.351 477.987 300.835 480.292 300.835 482.933C300.835 485.552 300.351 487.84 299.382 489.799C298.424 491.757 297.08 493.281 295.351 494.37C293.633 495.46 291.629 496.004 289.338 496.004ZM289.338 492.505C291.078 492.505 292.51 492.06 293.633 491.169C294.757 490.277 295.588 489.106 296.128 487.653C296.667 486.201 296.937 484.627 296.937 482.933C296.937 481.238 296.667 479.66 296.128 478.196C295.588 476.733 294.757 475.55 293.633 474.648C292.51 473.745 291.078 473.294 289.338 473.294C287.598 473.294 286.167 473.745 285.043 474.648C283.92 475.55 283.089 476.733 282.549 478.196C282.009 479.66 281.74 481.238 281.74 482.933C281.74 484.627 282.009 486.201 282.549 487.653C283.089 489.106 283.92 490.277 285.043 491.169C286.167 492.06 287.598 492.505 289.338 492.505Z" fill="black"/>
<path d="M306.786 495.476V470.126H310.553V474.087H310.883C311.412 472.733 312.265 471.682 313.443 470.934C314.622 470.175 316.037 469.795 317.689 469.795C319.363 469.795 320.756 470.175 321.868 470.934C322.991 471.682 323.867 472.733 324.495 474.087H324.759C325.409 472.777 326.383 471.737 327.683 470.967C328.982 470.186 330.54 469.795 332.358 469.795C334.626 469.795 336.482 470.505 337.924 471.925C339.367 473.333 340.088 475.528 340.088 478.51V495.476H336.19V478.51C336.19 476.639 335.678 475.302 334.654 474.499C333.629 473.696 332.424 473.294 331.036 473.294C329.252 473.294 327.87 473.834 326.89 474.912C325.91 475.979 325.42 477.332 325.42 478.972V495.476H321.455V478.114C321.455 476.672 320.987 475.511 320.051 474.631C319.115 473.74 317.909 473.294 316.433 473.294C315.42 473.294 314.473 473.564 313.592 474.103C312.722 474.642 312.017 475.39 311.478 476.348C310.949 477.294 310.685 478.389 310.685 479.632V495.476H306.786Z" fill="black"/>
<path d="M347.216 495.476V470.126H350.983V474.087H351.313C351.842 472.733 352.695 471.682 353.873 470.934C355.052 470.175 356.467 469.795 358.119 469.795C359.793 469.795 361.186 470.175 362.298 470.934C363.421 471.682 364.297 472.733 364.924 474.087H365.189C365.838 472.777 366.813 471.737 368.113 470.967C369.412 470.186 370.97 469.795 372.787 469.795C375.056 469.795 376.912 470.505 378.354 471.925C379.797 473.333 380.518 475.528 380.518 478.51V495.476H376.62V478.51C376.62 476.639 376.108 475.302 375.084 474.499C374.059 473.696 372.854 473.294 371.466 473.294C369.682 473.294 368.3 473.834 367.32 474.912C366.34 475.979 365.85 477.332 365.85 478.972V495.476H361.885V478.114C361.885 476.672 361.417 475.511 360.481 474.631C359.545 473.74 358.339 473.294 356.863 473.294C355.85 473.294 354.903 473.564 354.022 474.103C353.152 474.642 352.447 475.39 351.908 476.348C351.379 477.294 351.115 478.389 351.115 479.632V495.476H347.216Z" fill="black"/>
<path d="M403.636 485.111V470.126H407.535V495.476H403.636V491.185H403.372C402.777 492.472 401.852 493.567 400.597 494.469C399.341 495.361 397.756 495.806 395.839 495.806C394.254 495.806 392.844 495.46 391.611 494.767C390.377 494.062 389.408 493.006 388.703 491.598C387.999 490.178 387.646 488.39 387.646 486.234V470.126H391.545V485.97C391.545 487.818 392.062 489.293 393.097 490.393C394.144 491.493 395.476 492.043 397.095 492.043C398.064 492.043 399.05 491.796 400.052 491.301C401.065 490.805 401.913 490.046 402.596 489.023C403.289 488 403.636 486.696 403.636 485.111Z" fill="black"/>
<path d="M418.574 480.226V495.476H414.675V470.126H418.441V474.087H418.772C419.366 472.799 420.269 471.765 421.481 470.984C422.692 470.192 424.256 469.795 426.172 469.795C427.89 469.795 429.393 470.148 430.682 470.852C431.97 471.545 432.972 472.601 433.688 474.021C434.404 475.429 434.762 477.211 434.762 479.368V495.476H430.864V479.632C430.864 477.641 430.346 476.089 429.311 474.978C428.276 473.856 426.855 473.294 425.049 473.294C423.805 473.294 422.692 473.564 421.712 474.103C420.743 474.642 419.978 475.429 419.416 476.463C418.854 477.497 418.574 478.752 418.574 480.226Z" fill="black"/>
<path d="M441.886 495.476V470.126H445.784V495.476H441.886ZM443.868 465.9C443.108 465.9 442.453 465.642 441.902 465.125C441.363 464.608 441.093 463.986 441.093 463.26C441.093 462.534 441.363 461.912 441.902 461.395C442.453 460.878 443.108 460.619 443.868 460.619C444.628 460.619 445.278 460.878 445.817 461.395C446.368 461.912 446.643 462.534 446.643 463.26C446.643 463.986 446.368 464.608 445.817 465.125C445.278 465.642 444.628 465.9 443.868 465.9Z" fill="black"/>
<path d="M463.959 470.126V473.426H450.81V470.126H463.959ZM454.642 464.052H458.541V488.214C458.541 489.315 458.701 490.14 459.02 490.69C459.35 491.229 459.769 491.592 460.275 491.779C460.793 491.955 461.338 492.043 461.911 492.043C462.34 492.043 462.693 492.021 462.968 491.977C463.243 491.922 463.464 491.878 463.629 491.845L464.422 495.344C464.157 495.443 463.788 495.542 463.315 495.641C462.841 495.751 462.241 495.806 461.514 495.806C460.413 495.806 459.334 495.57 458.277 495.097C457.23 494.623 456.36 493.903 455.667 492.935C454.984 491.966 454.642 490.745 454.642 489.271V464.052Z" fill="black"/>
<path d="M472.334 504.983C471.673 504.983 471.084 504.928 470.567 504.818C470.049 504.719 469.691 504.62 469.493 504.521L470.484 501.088C471.431 501.33 472.268 501.418 472.995 501.352C473.722 501.286 474.366 500.961 474.928 500.378C475.5 499.806 476.023 498.876 476.497 497.589L477.224 495.608L467.841 470.126H472.07L479.074 490.327H479.338L486.342 470.126H490.571L479.801 499.173C479.316 500.483 478.716 501.566 478 502.425C477.284 503.294 476.453 503.937 475.506 504.356C474.57 504.774 473.512 504.983 472.334 504.983Z" fill="black"/>
</g>
<defs>
<clipPath id="clip0_1064_6">
<rect width="512" height="509.641" fill="white"/>
</clipPath>
</defs>
</svg>
